HIERARCHY
ROOT joint_0
{
	OFFSET 0.000000 0.000000 0.000000
	CHANNELS 6 Xposition Yposition Zposition Zrotation Yrotation Xrotation 
	JOINT joint_1
	{
		OFFSET 1.363060 -1.794630 0.839290
		CHANNELS 3 Zrotation Yrotation Xrotation
		JOINT joint_2
		{
			OFFSET 2.448110 -6.726130 0.000000
			CHANNELS 3 Zrotation Yrotation Xrotation
			JOINT joint_3
			{
				OFFSET 2.562200 -7.039590 0.000000
				CHANNELS 3 Zrotation Yrotation Xrotation
				JOINT joint_4
				{
					OFFSET 0.157640 -0.433110 2.322550
					CHANNELS 3 Zrotation Yrotation Xrotation
					End Site
					{
						OFFSET 0.000000 0.000000 0.000000
					}
				}
			}
		}
	}
	JOINT joint_5
	{
		OFFSET -1.305520 -1.794630 0.839290
		CHANNELS 3 Zrotation Yrotation Xrotation
		JOINT joint_6
		{
			OFFSET -2.542530 -6.985550 0.000000
			CHANNELS 3 Zrotation Yrotation Xrotation
			JOINT joint_7
			{
				OFFSET -2.568260 -7.056230 0.000000
				CHANNELS 3 Zrotation Yrotation Xrotation
				JOINT joint_8
				{
					OFFSET -0.164730 -0.452590 2.363150
					CHANNELS 3 Zrotation Yrotation Xrotation
					End Site
					{
						OFFSET 0.000000 0.000000 0.000000
					}
				}
			}
		}
	}
	JOINT joint_9
	{
		OFFSET 0.028270 2.035590 -0.193380
		CHANNELS 3 Zrotation Yrotation Xrotation
		JOINT joint_10
		{
			OFFSET 0.056720 2.048850 -0.042750
			CHANNELS 3 Zrotation Yrotation Xrotation
			JOINT joint_11
			{
				OFFSET -0.054170 1.746240 0.172020
				CHANNELS 3 Zrotation Yrotation Xrotation
				JOINT joint_12
				{
					OFFSET 0.104070 1.761360 -0.123970
					CHANNELS 3 Zrotation Yrotation Xrotation
					End Site
					{
						OFFSET 0.000000 0.000000 0.000000
					}
				}
			}
			JOINT joint_13
			{
				OFFSET 3.362410 1.200890 -0.311210
				CHANNELS 3 Zrotation Yrotation Xrotation
				JOINT joint_14
				{
					OFFSET 4.983000 -0.000000 -0.000000
					CHANNELS 3 Zrotation Yrotation Xrotation
					JOINT joint_15
					{
						OFFSET 3.483560 -0.000000 -0.000000
						CHANNELS 3 Zrotation Yrotation Xrotation
						JOINT joint_16
						{
							OFFSET 0.715260 -0.000000 -0.000000
							CHANNELS 3 Zrotation Yrotation Xrotation
							End Site
							{
								OFFSET 0.000000 0.000000 0.000000
							}
						}
					}
				}
			}
			JOINT joint_17
			{
				OFFSET -3.136600 1.374050 -0.404650
				CHANNELS 3 Zrotation Yrotation Xrotation
				JOINT joint_18
				{
					OFFSET -5.241900 -0.000000 -0.000000
					CHANNELS 3 Zrotation Yrotation Xrotation
					JOINT joint_19
					{
						OFFSET -3.444170 -0.000000 -0.000000
						CHANNELS 3 Zrotation Yrotation Xrotation
						JOINT joint_20
						{
							OFFSET -0.622530 -0.000000 -0.000000
							CHANNELS 3 Zrotation Yrotation Xrotation
							End Site
							{
								OFFSET 0.000000 0.000000 0.000000
							}
						}
					}
				}
			}
		}
	}
}
MOTION
Frames: 10
Frame Time: 0.031667
1.386107 16.969148 6.217893 3.605782 -14.852827 4.117599 -29.335012 -10.740568 4.749163 -2.396934 5.190522 16.000268 -4.605796 18.708833 -19.827298 0.431869 1.568944 11.089365 23.427949 16.690043 -7.698737 1.030431 -9.231629 27.358342 2.204415 -16.013135 -18.356975 -0.194968 2.773594 -7.617969 1.177128 -2.984859 -4.759173 -1.011147 -4.506114 -7.773240 6.559438 -13.272171 15.244169 -0.740233 -6.636344 11.070969 -88.266042 8.578219 0.061892 20.653415 -26.401321 -4.774931 0.129303 2.511240 19.834252 -6.991806 0.002677 0.010561 82.957603 -2.864255 15.318527 -20.146967 28.194588 -4.870321 1.277655 -3.277658 10.383314 7.050612 -0.003254 0.000052 
1.355198 16.966645 6.239659 3.593202 -14.895357 4.098287 -29.421860 -9.460475 4.681398 -2.829169 5.151768 16.340167 -3.229502 18.136895 -16.985490 0.225234 2.960801 8.210837 22.087891 16.335845 -7.666124 0.282249 -10.294952 29.375709 1.735378 -14.378937 -16.929386 -0.209601 -2.375391 6.703309 0.992554 -3.238600 -4.678290 -1.034377 -3.452587 -5.647974 5.988033 -12.474272 13.934959 -1.044965 -6.708901 10.975867 -86.955181 8.047610 -1.418754 19.175199 -25.979998 -3.855327 -0.649686 3.447309 19.676696 -6.970504 0.001649 0.012270 81.252947 -3.185570 15.326329 -18.496907 27.156744 -3.993533 1.703802 -3.712107 9.916573 7.009867 -0.006250 -0.002902 
1.322222 16.966972 6.255658 3.396454 -14.930556 4.149715 -29.793255 -9.961330 4.062303 -3.465181 4.234997 14.545939 -3.253928 18.440825 -16.699600 0.108365 2.053332 5.635482 19.962504 15.260122 -7.802039 0.415001 -10.583891 29.022370 1.775665 -13.502001 -15.859266 -0.185879 -1.824599 6.049625 1.194646 -3.836239 -5.478741 -1.322062 -4.065751 -6.533782 5.652885 -12.359517 13.440358 -1.156698 -6.895375 10.944680 -87.884017 9.171744 -2.103875 19.800413 -26.082770 -3.598877 -0.857729 3.876756 19.522560 -6.980420 0.006913 0.014454 80.866247 -2.341883 15.713202 -17.945088 26.350391 -3.418736 1.856694 -3.658968 10.343968 7.010068 -0.002900 0.000360 
1.289681 16.966863 6.272527 3.260391 -14.948604 4.183172 -29.681739 -10.336402 3.537365 -3.191824 4.266053 14.816265 -2.568129 19.163181 -16.657523 0.059061 -1.070091 -2.964275 20.106095 15.500475 -8.027523 0.157811 -10.327364 28.544785 1.646845 -12.226975 -16.156959 -0.079091 1.763583 -4.718035 1.173424 -3.411349 -4.997718 -1.557087 -3.328352 -5.629535 5.526253 -12.426622 13.639433 -1.090045 -6.980242 11.219087 -88.178765 8.759558 -2.616309 19.072360 -26.087289 -3.294969 -0.997230 3.752155 17.703684 -7.002942 0.009587 0.013851 79.865844 -1.978722 15.590383 -17.105115 25.499535 -3.648251 0.937372 -2.828706 11.127887 7.026377 -0.000124 0.003898 
1.257683 16.966536 6.289941 3.165406 -14.945619 4.208039 -30.087474 -10.594385 4.174774 -2.791162 4.394844 14.969657 -2.549808 19.875052 -17.308187 0.036457 0.702570 1.873980 19.155238 15.251988 -8.275338 0.814301 -10.132458 28.405455 0.968320 -12.317501 -15.974134 -0.080349 1.806531 -4.766490 1.618363 -3.682366 -5.505570 -2.156781 -3.771876 -6.503877 5.618124 -12.666587 13.146921 -0.963859 -6.918195 11.090149 -88.063918 10.372877 -1.941237 19.780061 -26.419926 -3.540578 -1.397258 4.069741 18.192459 -7.006943 0.013221 0.014273 78.662614 -0.859915 15.155458 -16.155980 25.080802 -3.194976 0.090502 -2.331648 12.285680 7.028594 0.002682 0.007633 
1.226013 16.966427 6.306374 3.089686 -14.927149 4.238834 -30.097815 -10.511616 3.975222 -1.775412 4.753387 15.844465 -2.377512 20.660231 -18.383066 0.000205 -0.027951 -0.077326 19.278132 15.519217 -8.158231 1.043164 -9.697867 27.233232 0.962212 -13.100367 -16.595519 -0.071212 1.719634 -4.572268 1.477637 -3.421543 -5.506119 -2.227969 -2.790601 -5.430597 5.435970 -12.981972 12.857763 -0.992632 -7.099937 11.047114 -88.548346 11.325729 -2.761476 19.625178 -26.982899 -3.213798 -2.059802 3.135866 15.634502 -7.007808 0.016389 0.014745 77.937971 -0.478443 14.875856 -15.111129 24.069985 -2.895116 -0.244376 -2.426804 13.270540 7.027004 0.003962 0.009885 
1.194451 16.967080 6.319435 3.006682 -14.903812 4.286947 -31.143413 -11.324383 4.151914 -1.430977 4.932157 15.859038 -2.593543 21.529392 -18.939359 -0.000684 0.025348 0.071378 19.064237 15.841241 -7.833900 0.965753 -10.048728 27.804379 0.759968 -12.654972 -17.051283 -0.170219 6.194765 1.474299 1.174370 -3.658376 -5.743391 -2.151090 -2.384042 -5.029183 5.481636 -15.175625 14.069436 -1.122346 -7.215511 10.914641 -89.310475 12.008959 -2.603057 20.212057 -27.339247 -3.560031 -2.222063 2.881192 16.020163 -7.030711 0.018584 0.016903 78.254237 0.346459 13.130732 -14.991774 23.962006 -2.999631 -0.705707 -2.616373 14.543585 7.058345 0.003398 0.010676 
1.163760 16.967951 6.331080 2.924977 -14.875429 4.339157 -31.523753 -11.867151 4.228917 -1.771558 4.834245 15.603671 -2.259981 22.419895 -19.770034 0.014815 0.699666 1.919074 18.659866 15.771517 -7.708192 1.236170 -10.417022 28.673829 0.693407 -12.736662 -17.727888 -0.155852 2.982608 -5.526968 1.095435 -3.597735 -5.394918 -1.953548 -2.126627 -4.803154 6.335366 -16.249493 14.516141 -0.913034 -7.172646 10.868168 -89.392081 11.617338 -3.045206 20.560040 -28.324465 -3.523591 -2.046176 3.066929 15.015019 -7.077010 0.018433 0.018918 77.958262 -1.042113 12.106401 -14.636197 23.497506 -3.227533 -1.407777 -2.298395 15.377720 7.094181 0.002580 0.010114 
1.133831 16.969039 6.341092 2.830505 -14.847799 4.390574 -31.913759 -11.670613 4.804229 -1.477874 4.628157 15.767925 -1.884441 21.533755 -19.544576 0.023494 0.906681 2.485417 19.704435 15.951942 -7.730728 1.488933 -10.215038 29.064654 0.632602 -13.361692 -18.200591 -0.070973 1.744200 -4.671843 1.145058 -3.773163 -5.404152 -1.592211 -1.963897 -4.866317 6.678206 -15.038809 13.290921 -0.516260 -7.168566 11.025423 -90.487315 11.316282 -1.675263 20.935924 -29.128008 -3.830396 -2.170060 3.751361 15.382219 -7.111926 0.015969 0.019858 78.738991 -2.163587 10.310083 -14.028707 22.848613 -2.785208 -2.385731 -1.919968 17.140375 7.119205 0.001134 0.009083 
1.104228 16.970345 6.348820 2.732077 -14.816978 4.436409 -31.914468 -11.739780 4.614883 -1.757310 4.785245 14.675980 -1.257121 21.732128 -19.954202 0.053176 1.189050 3.214699 20.428677 16.044778 -7.809400 1.618949 -10.478125 29.408108 0.629808 -13.953580 -18.596545 -0.095600 2.060119 -5.136184 1.287377 -4.022502 -5.760234 -1.348783 -1.992838 -5.083120 6.596229 -14.325207 12.968380 -0.232626 -7.097468 11.244706 -91.070814 11.604708 -1.240139 22.040889 -30.125011 -4.751717 -2.140119 3.666016 13.881713 -7.129511 0.014357 0.019532 79.073025 -3.831182 8.617187 -14.012356 22.806067 -2.779849 -2.310510 -2.355989 19.013512 7.131629 0.000007 0.007856 
